<svg   viewBox="0 0 162 162" fill="none" xmlns="http://www.w3.org/2000/svg">
<g clip-path="url(#clip0_29_4122)">
<rect width="162" height="162" rx="8" fill="#273B7A"/>
<path d="M81 162C125.735 162 162 125.735 162 81C162 36.2649 125.735 0 81 0C36.2649 0 0 36.2649 0 81C0 125.735 36.2649 162 81 162Z" fill="#273B7A"/>
<path d="M59.0525 111.861L105.436 158.245L109 162H162V93.2734H161.075L115.136 47.334L59.0525 111.861Z" fill="#121149"/>
<path d="M81 126.567C113.57 111.534 114.793 92.3584 115.136 77.3984C115.309 69.884 115.136 47.3335 115.136 47.3335C92.9007 42.6361 81 35.4334 81 35.4334C81 35.4334 69.0993 42.6367 46.8639 47.3341C46.8639 47.3341 46.6914 69.8847 46.8639 77.399C47.2069 92.3587 48.4298 111.534 81 126.567Z" fill="#4486F4"/>
<path d="M81 100.898C93.4535 100.898 103.549 90.8026 103.549 78.3492C103.549 65.8957 93.4535 55.8002 81 55.8002C68.5465 55.8002 58.451 65.8957 58.451 78.3492C58.451 90.8026 68.5465 100.898 81 100.898Z" fill="#426FC2"/>
<path d="M81 79.4319C86.3186 79.4319 90.6301 75.1204 90.6301 69.8018C90.6301 64.4832 86.3186 60.1716 81 60.1716C75.6814 60.1716 71.3698 64.4832 71.3698 69.8018C71.3698 75.1204 75.6814 79.4319 81 79.4319Z" fill="white"/>
<path d="M81 83.0753C73.5141 83.0753 66.8209 86.1359 62.2979 90.95C66.3494 96.9516 73.2142 100.898 81 100.898C88.7864 100.898 95.6509 96.9523 99.7021 90.9504C95.1791 86.1359 88.4858 83.0753 81 83.0753Z" fill="white"/>
</g>
<defs>
<clipPath id="clip0_29_4122">
<rect width="162" height="162" rx="8" fill="white"/>
</clipPath>
</defs>
</svg>
