<svg  viewBox="0 0 162 162" fill="none" xmlns="http://www.w3.org/2000/svg">
<g clip-path="url(#clip0_38_4515)">
<rect width="162" height="162" rx="8" fill="#1196C8"/>
<path d="M162 81C162 125.735 125.735 162 81 162C36.2637 162 0 125.735 0 81C0 36.2637 36.2637 0 81 0C125.735 0 162 36.2637 162 81Z" fill="#1196C8"/>
<mask id="mask0_38_4515" style="mask-type:luminance" maskUnits="userSpaceOnUse" x="81" y="161" width="3" height="1">
<path d="M81.0906 162C81.1035 162 81.1132 162 81.1278 162C81.1165 162 81.1003 162 81.0906 162ZM81.2218 162C81.2315 162 81.2445 162 81.2558 162C81.2429 162 81.2348 162 81.2218 162ZM81.3498 162C81.3595 161.998 81.3725 161.998 81.3838 161.998C81.3741 161.998 81.3595 161.998 81.3498 162ZM81.5409 161.998C81.5555 161.998 81.5636 161.998 81.5782 161.998C81.5652 161.998 81.5539 161.998 81.5409 161.998ZM81.6041 161.997C81.6187 161.997 81.6284 161.997 81.643 161.997C81.6301 161.997 81.6171 161.997 81.6041 161.997ZM81.6689 161.997C81.6803 161.997 81.6965 161.997 81.7062 161.997C81.6932 161.997 81.6819 161.997 81.6689 161.997ZM81.7985 161.997C81.8099 161.995 81.8228 161.995 81.8342 161.995C81.8228 161.995 81.8082 161.995 81.7985 161.997ZM81.8633 161.995C81.8747 161.995 81.886 161.995 81.8973 161.995C81.8844 161.995 81.8763 161.995 81.8633 161.995ZM82.0577 161.994C82.069 161.994 82.0739 161.994 82.0853 161.994C82.0756 161.994 82.0674 161.994 82.0577 161.994ZM82.1873 161.992C82.1954 161.992 82.1987 161.992 82.2068 161.992C82.2019 161.992 82.1922 161.992 82.1873 161.992ZM82.2489 161.99C82.257 161.99 82.2635 161.99 82.2716 161.99C82.2651 161.99 82.2554 161.99 82.2489 161.99ZM82.3769 161.989C82.385 161.989 82.3882 161.989 82.3963 161.989C82.3898 161.989 82.3817 161.989 82.3769 161.989ZM82.8045 161.981C82.811 161.981 82.8127 161.981 82.8175 161.981C82.8159 161.981 82.8078 161.981 82.8045 161.981ZM82.8661 161.979C82.8709 161.979 82.8774 161.979 82.8823 161.979C82.8742 161.979 82.8742 161.979 82.8661 161.979ZM82.9277 161.977C82.9341 161.977 82.939 161.977 82.9455 161.977C82.9374 161.977 82.9358 161.977 82.9277 161.977ZM82.9908 161.976C82.9973 161.976 83.0038 161.976 83.0087 161.976C83.0038 161.976 82.9957 161.976 82.9908 161.976ZM83.0573 161.974C83.0605 161.974 83.067 161.974 83.0702 161.974C83.0637 161.974 83.0621 161.974 83.0573 161.974ZM83.1221 161.972C83.1237 161.972 83.1302 161.972 83.1318 161.972C83.1269 161.972 83.1269 161.972 83.1221 161.972ZM83.1853 161.971C83.1885 161.971 83.1917 161.971 83.1949 161.971C83.1885 161.971 83.1901 161.971 83.1853 161.971ZM83.31 161.968C83.3132 161.968 83.3181 161.968 83.3197 161.968C83.3148 161.968 83.3149 161.968 83.31 161.968Z" fill="white"/>
</mask>
<g mask="url(#mask0_38_4515)">
<path d="M81.0906 162C81.1035 162 81.1132 162 81.1278 162C81.1165 162 81.1003 162 81.0906 162ZM81.2218 162C81.2315 162 81.2445 162 81.2558 162C81.2429 162 81.2348 162 81.2218 162ZM81.3498 162C81.3595 161.998 81.3725 161.998 81.3838 161.998C81.3741 161.998 81.3595 161.998 81.3498 162ZM81.5409 161.998C81.5555 161.998 81.5636 161.998 81.5782 161.998C81.5652 161.998 81.5539 161.998 81.5409 161.998ZM81.6041 161.997C81.6187 161.997 81.6284 161.997 81.643 161.997C81.6301 161.997 81.6171 161.997 81.6041 161.997ZM81.6689 161.997C81.6803 161.997 81.6965 161.997 81.7062 161.997C81.6932 161.997 81.6819 161.997 81.6689 161.997ZM81.7985 161.997C81.8099 161.995 81.8228 161.995 81.8342 161.995C81.8228 161.995 81.8082 161.995 81.7985 161.997ZM81.8633 161.995C81.8747 161.995 81.886 161.995 81.8973 161.995C81.8844 161.995 81.8763 161.995 81.8633 161.995ZM82.0577 161.994C82.069 161.994 82.0739 161.994 82.0853 161.994C82.0756 161.994 82.0674 161.994 82.0577 161.994ZM82.1873 161.992C82.1954 161.992 82.1987 161.992 82.2068 161.992C82.2019 161.992 82.1922 161.992 82.1873 161.992ZM82.2489 161.99C82.257 161.99 82.2635 161.99 82.2716 161.99C82.2651 161.99 82.2554 161.99 82.2489 161.99ZM82.3769 161.989C82.385 161.989 82.3882 161.989 82.3963 161.989C82.3898 161.989 82.3817 161.989 82.3769 161.989ZM82.8045 161.981C82.811 161.981 82.8127 161.981 82.8175 161.981C82.8159 161.981 82.8078 161.981 82.8045 161.981ZM82.8661 161.979C82.8709 161.979 82.8774 161.979 82.8823 161.979C82.8742 161.979 82.8742 161.979 82.8661 161.979ZM82.9277 161.977C82.9341 161.977 82.939 161.977 82.9455 161.977C82.9374 161.977 82.9358 161.977 82.9277 161.977ZM82.9908 161.976C82.9973 161.976 83.0038 161.976 83.0087 161.976C83.0038 161.976 82.9957 161.976 82.9908 161.976ZM83.0573 161.974C83.0605 161.974 83.067 161.974 83.0702 161.974C83.0637 161.974 83.0621 161.974 83.0573 161.974ZM83.1221 161.972C83.1237 161.972 83.1302 161.972 83.1318 161.972C83.1269 161.972 83.1269 161.972 83.1221 161.972ZM83.1853 161.971C83.1885 161.971 83.1917 161.971 83.1949 161.971C83.1885 161.971 83.1901 161.971 83.1853 161.971ZM83.31 161.968C83.3132 161.968 83.3181 161.968 83.3197 161.968C83.3148 161.968 83.3149 161.968 83.31 161.968Z" fill="url(#paint0_linear_38_4515)"/>
</g>
<path d="M80.9999 162C80.9772 162 80.9529 162 80.9302 162C80.9302 162 80.927 162 80.9238 162C75.0221 161.994 69.276 161.339 63.734 160.137L35.9526 132.759L81.0226 112.567L104.623 29.3592L161.789 86.5615C160.297 108.536 150.047 128.108 134.5 141.806C120.818 153.861 103.035 161.368 83.5077 161.963C83.5044 161.963 83.5028 161.963 83.4996 161.963C83.4785 161.963 83.4639 161.963 83.4429 161.964H83.438C83.4202 161.964 83.3991 161.966 83.3813 161.966C83.3781 161.966 83.3748 161.966 83.3748 161.966C83.357 161.966 83.3392 161.966 83.3197 161.968C83.3197 161.968 83.3133 161.968 83.31 161.968C83.2938 161.968 83.2744 161.968 83.2582 161.969C83.2533 161.969 83.2517 161.969 83.2468 161.969C83.2306 161.969 83.2096 161.971 83.195 161.971C83.1918 161.971 83.1885 161.971 83.1853 161.971C83.1691 161.971 83.148 161.972 83.1318 161.972H83.1221C83.1059 161.972 83.0848 161.974 83.0703 161.974C83.067 161.974 83.0606 161.974 83.0573 161.974C83.0411 161.974 83.0249 161.976 83.0087 161.976C83.0039 161.976 82.9974 161.976 82.9909 161.976C82.9763 161.977 82.9601 161.977 82.9455 161.977C82.9391 161.977 82.9342 161.977 82.9277 161.977C82.9148 161.977 82.8953 161.977 82.8823 161.979C82.8775 161.979 82.871 161.979 82.8661 161.979C82.8499 161.979 82.8338 161.981 82.8176 161.981C82.8127 161.981 82.8111 161.981 82.8046 161.981C82.7868 161.981 82.7738 161.981 82.756 161.981C82.7495 161.981 82.7463 161.982 82.7414 161.982C82.7252 161.982 82.7058 161.982 82.6912 161.982H82.6896C82.6685 161.982 82.6491 161.984 82.628 161.984H82.6248C82.547 161.985 82.4741 161.987 82.3963 161.989C82.3882 161.989 82.385 161.989 82.3769 161.989C82.3607 161.989 82.3445 161.989 82.3283 161.989C82.3235 161.989 82.3202 161.989 82.3137 161.989C82.2991 161.99 82.2862 161.99 82.2716 161.99C82.2635 161.99 82.257 161.99 82.2489 161.99C82.2344 161.99 82.223 161.992 82.2068 161.992C82.1987 161.992 82.1955 161.992 82.1874 161.992C82.1712 161.992 82.1631 161.992 82.1469 161.992C82.1388 161.992 82.1291 161.992 82.121 161.992C82.1112 161.992 82.0967 161.992 82.0853 161.994C82.074 161.994 82.0691 161.994 82.0578 161.994C82.048 161.994 82.0335 161.994 82.0237 161.994C82.0124 161.994 82.0027 161.994 81.9913 161.994C81.9816 161.994 81.9719 161.994 81.9606 161.994C81.9476 161.994 81.9411 161.994 81.9282 161.995C81.9201 161.995 81.9055 161.995 81.8974 161.995C81.886 161.995 81.8747 161.995 81.8634 161.995C81.852 161.995 81.8439 161.995 81.8342 161.995C81.8229 161.995 81.8099 161.995 81.7986 161.997C81.7889 161.997 81.7808 161.997 81.771 161.997C81.7597 161.997 81.7435 161.997 81.7338 161.997C81.7224 161.997 81.7176 161.997 81.7062 161.997C81.6965 161.997 81.6803 161.997 81.669 161.997C81.6609 161.997 81.6495 161.997 81.6431 161.997C81.6285 161.997 81.6188 161.997 81.6042 161.997C81.5961 161.997 81.5863 161.998 81.5782 161.998C81.5637 161.998 81.5556 161.998 81.541 161.998C81.5345 161.998 81.5216 161.998 81.5135 161.998C81.5005 161.998 81.4892 161.998 81.4762 161.998C81.4649 161.998 81.46 161.998 81.4503 161.998C81.4389 161.998 81.4243 161.998 81.413 161.998C81.4033 161.998 81.3952 161.998 81.3838 161.998C81.3725 161.998 81.3596 161.998 81.3498 162C81.3385 162 81.3304 162 81.3207 162C81.3093 162 81.2963 162 81.2866 162C81.2753 162 81.2656 162 81.2559 162C81.2445 162 81.2316 162 81.2218 162C81.2105 162 81.2024 162 81.1911 162C81.1814 162 81.1684 162 81.1571 162C81.1473 162 81.1376 162 81.1279 162C81.1133 162 81.1036 162 81.0906 162C81.0793 162 81.0744 162 81.0631 162C81.042 162 81.021 162 80.9999 162Z" fill="#228BB3"/>
<path d="M83.4996 161.963H83.5077C103.035 161.368 120.818 153.861 134.5 141.806C150.047 128.108 160.297 108.536 161.789 86.5615V162H81.3498C81.3596 161.998 81.3725 161.998 81.3838 161.998H81.413H81.4503H81.4762H81.5135H81.541H81.5782C81.5863 161.998 81.5961 161.997 81.6042 161.997H81.6431H81.669H81.7062H81.7338H81.771H81.7986C81.8099 161.995 81.8229 161.995 81.8342 161.995H81.8634H81.8974H81.9282C81.9411 161.994 81.9476 161.994 81.9606 161.994H81.9913H82.0237H82.0578H82.0853C82.0967 161.992 82.1112 161.992 82.121 161.992H82.1469H82.1874H82.2068C82.223 161.992 82.2344 161.99 82.2489 161.99H82.2716C82.2862 161.99 82.2991 161.99 82.3137 161.989H82.3283H82.3769H82.3963L82.6248 161.984H82.628C82.6491 161.984 82.6685 161.982 82.6896 161.982H82.6912H82.7414C82.7463 161.982 82.7495 161.981 82.756 161.981H82.8046H82.8176C82.8338 161.981 82.8499 161.979 82.8661 161.979H82.8823C82.8953 161.977 82.9148 161.977 82.9277 161.977H82.9455C82.9601 161.977 82.9763 161.977 82.9909 161.976H83.0087C83.0249 161.976 83.0411 161.974 83.0573 161.974H83.0703C83.0848 161.974 83.1059 161.972 83.1221 161.972H83.1318C83.148 161.972 83.1691 161.971 83.1853 161.971H83.195C83.2096 161.971 83.2306 161.969 83.2468 161.969H83.2582C83.2744 161.968 83.2938 161.968 83.31 161.968H83.3197C83.3392 161.966 83.357 161.966 83.3748 161.966H83.3813C83.3991 161.966 83.4202 161.964 83.438 161.964H83.4429C83.4639 161.963 83.4785 161.963 83.4996 161.963Z" fill="#228BB3"/>
<path d="M67.8618 102.11C67.8618 102.11 69.1075 98.1332 69.4753 95.7048H92.5586C92.5586 95.7048 93.5533 101.389 94.1835 102.11C94.8153 102.831 91.841 112.567 81.0226 112.567C70.2059 112.567 67.8618 102.11 67.8618 102.11Z" fill="#F9D2AF"/>
<path d="M113.654 110.403C104.641 105.537 98.3307 105.716 94.1835 102.11C94.1835 102.11 92.2022 111.126 81.0226 111.126C69.8446 111.126 67.8617 102.11 67.8617 102.11C63.7161 105.716 57.4062 105.537 48.3926 110.403C39.3773 115.271 35.9526 132.759 35.9526 132.759H81.0226H126.096C126.096 132.759 122.668 115.271 113.654 110.403Z" fill="#50ACE4"/>
<path d="M65.3329 103.781L67.8618 102.11C67.8618 102.11 69.7556 111.126 81.0227 111.126C92.2898 111.126 94.1835 102.11 94.1835 102.11L96.714 103.779C96.714 103.779 93.7656 116.413 81.0227 116.413C68.2846 116.413 65.3329 103.779 65.3329 103.781Z" fill="#3972C1"/>
<path d="M68.931 98.2952C72.8627 101.804 77.4505 103.734 81.0226 103.734C84.5834 103.734 89.1453 101.814 93.069 98.326C92.7741 96.9376 92.5586 95.7048 92.5586 95.7048H69.4753C69.3602 96.471 69.1545 97.3928 68.931 98.2952Z" fill="#F5C19F"/>
<path d="M107.165 55.5969C107.165 55.5969 107.255 34.9548 81.0226 34.9548C54.7916 34.9548 54.8823 55.5969 54.8823 55.5969C45.7795 56.679 51.1854 71.3724 54.8823 75.2474C58.5775 79.1241 60.2931 78.6738 60.2931 78.6738C60.2931 78.6738 60.5733 80.7312 61.6441 84.0829C64.9587 94.4866 74.622 100.669 81.0226 100.669C87.4248 100.669 97.0719 94.4817 100.404 84.0829C101.417 80.9207 101.757 78.6738 101.757 78.6738C101.757 78.6738 103.469 79.1241 107.165 75.2474C110.86 71.3724 116.269 56.679 107.165 55.5969Z" fill="#F9DFC1"/>
<path d="M100.404 84.0829C101.417 80.9207 101.757 78.6738 101.757 78.6738C101.757 78.6738 103.469 79.1241 107.165 75.2474C110.86 71.3724 116.269 56.679 107.165 55.5969C107.165 55.5969 107.255 34.9548 81.0226 34.9548V100.669C87.4249 100.669 97.072 94.4817 100.404 84.0829Z" fill="#F9D2AF"/>
<path d="M81.0226 22.3043C65.6391 22.3043 49.282 26.8791 52.7715 56.2012C52.7715 56.2012 54.1598 55.5969 54.973 55.8674C56.4845 56.3712 57.3933 56.1898 58.9096 67.8101H60.7111V47.424C60.7111 47.424 88.857 51.2941 96.714 38.4767C102.431 45.096 101.817 67.8101 101.817 67.8101H103.98C103.98 67.8101 104.956 57.2201 106.413 56.2481C107.921 55.2421 109.949 56.6078 109.949 56.6078C114.315 29.7563 101.096 22.3043 81.0226 22.3043Z" fill="#85471B"/>
</g>
<defs>
<linearGradient id="paint0_linear_38_4515" x1="61.605" y1="72.386" x2="132.876" y2="143.664" gradientUnits="userSpaceOnUse">
<stop stop-color="#9C9C9B"/>
<stop offset="1" stop-color="#C8C7C6"/>
</linearGradient>
<clipPath id="clip0_38_4515">
<rect width="162" height="162" rx="8" fill="white"/>
</clipPath>
</defs>
</svg>
