<svg viewBox="0 0 162 162" fill="none" xmlns="http://www.w3.org/2000/svg">
<g clip-path="url(#clip0_29_4178)">
<rect width="162" height="162" rx="8" fill="#AB91EA"/>
<path d="M162 81C162 125.735 125.735 162 81 162C36.2647 162 0 125.735 0 81C0 36.2648 36.2647 1.52588e-05 81 1.52588e-05C125.735 1.52588e-05 162 36.2648 162 81Z" fill="#AB91EA"/>
<path d="M162 81C162 77.2415 161.721 73.5493 161.226 69.9279L123.076 31.6611L78.9582 74.797L40.7158 109.867L39.4792 113.205L61 162L81.0001 162H162V81Z" fill="#947ADB"/>
<path d="M102.003 56.3005L93.4283 47.9162L113.128 27.7763L121.698 36.165L102.003 56.3005Z" fill="#2F3241"/>
<path d="M98.3505 71.4208L115.15 54.2431L105.171 44.4851L88.3601 61.6606L98.3505 71.4208Z" fill="#F5F5F5"/>
<path d="M88.36 61.6607L60.0814 90.5764L70.0606 100.339L98.3503 71.421L88.36 61.6607Z" fill="#F5F5F5"/>
<path d="M78.3896 51.9005L50.0977 80.814L60.0814 90.5764L88.36 61.6607L78.3896 51.9005Z" fill="white"/>
<path d="M105.171 44.4852L95.1957 34.7249L78.3896 51.9005L88.36 61.6607L105.171 44.4852Z" fill="white"/>
<path d="M58.7498 100.868L49.8103 92.1183L55.6085 86.1941L64.5502 94.941L58.7498 100.868Z" fill="#2F3241"/>
<path d="M38.9615 114.71L36.3378 112.15L52.9669 95.2177L55.5972 97.7862L38.9615 114.71Z" fill="#2F3241"/>
<path d="M113.099 58.2671L90.893 36.541L93.9392 33.4262L116.15 55.1546L113.099 58.2671Z" fill="#2F3241"/>
<path d="M127.284 42.837L106.341 22.3431L110.026 18.5714L130.974 39.0653L127.284 42.837Z" fill="#2F3241"/>
<path d="M59.5726 90.0831L70.0607 100.339L101.167 68.6027L91.112 58.546L59.5726 90.0831Z" fill="#FEC5BB"/>
<path d="M81.396 48.8298L50.0977 80.8139L59.5726 90.0831L91.112 58.546L81.396 48.8298Z" fill="#FEC5BB"/>
<path d="M80.9093 62.5833L76.58 58.2539L78.3254 56.5063L82.6591 60.8355L80.9093 62.5833Z" fill="#2F3241"/>
<path d="M75.4097 68.0782L71.0848 63.7488L72.8302 62.0035L77.1573 66.3372L75.4097 68.0782Z" fill="#2F3241"/>
<path d="M69.9147 73.5802L65.5832 69.2464L67.3309 67.5032L71.6601 71.8325L69.9147 73.5802Z" fill="#2F3241"/>
<path d="M64.4173 79.0754L60.088 74.7461L61.8312 73.0007L66.1628 77.3299L64.4173 79.0754Z" fill="#2F3241"/>
</g>
<defs>
<clipPath id="clip0_29_4178">
<rect width="162" height="162" rx="8" fill="white"/>
</clipPath>
</defs>
</svg>
