<svg  viewBox="0 0 162 162" fill="none" xmlns="http://www.w3.org/2000/svg">
<g clip-path="url(#clip0_29_4139)">
<rect width="162" height="162" rx="8" fill="#BD2C54"/>
<path d="M162 80.999C162 125.735 125.734 162 80.999 162C36.2635 162 0 125.735 0 80.999C0 36.2655 36.2635 4.57764e-05 80.999 4.57764e-05C125.734 4.57764e-05 162 36.2655 162 80.999Z" fill="#BD2C54"/>
<path d="M34.7104 112.474L84.1539 161.919H162.5L162 92.9339H161.119L127.212 59.0283L34.7104 112.474Z" fill="#8A1821"/>
<path d="M81.1037 81.1305V134.495L34.7104 107.679V54.3144L81.1037 81.1305Z" fill="#F47342"/>
<path d="M127.29 54.3183V107.683L81.1029 134.495V81.1305L127.29 54.3183Z" fill="#EF572F"/>
<path d="M97.9411 37.2781L51.6894 64.1276L57.4101 67.4354L103.65 40.5937L97.9411 37.2781Z" fill="#F47342"/>
<path d="M81.1037 27.5042L34.7104 54.3144L51.6898 64.1276L97.9415 37.278L81.1037 27.5042Z" fill="#FBCDC1"/>
<path d="M103.65 40.5936L57.4105 67.4353L62.6593 70.4697L108.889 43.6359L103.65 40.5936Z" fill="#F47342"/>
<path d="M127.29 54.3184L108.889 43.636L62.6591 70.4699L81.1036 81.1306L127.29 54.3184Z" fill="#FBCDC1"/>
<path d="M87.0343 121.518L87.0461 125.428L105.616 114.836L105.607 110.926L87.0343 121.518Z" fill="#781330"/>
<path d="M89.3018 116.448L92.7787 114.44L92.7531 105.237L94.6332 104.151L90.82 99.9271L87.0343 108.539L89.2762 107.245L89.3018 116.448Z" fill="#781330"/>
<path d="M99.9389 110.926L103.424 108.914L103.398 99.7107L105.27 98.6291L101.457 94.4049L97.6793 103.013L99.9133 101.724L99.9389 110.926Z" fill="#781330"/>
<path d="M51.711 64.1137V83.8797L62.7081 90.2081V70.4422L51.711 64.1137Z" fill="#F0411E"/>
<path d="M66.1143 62.3813H54.7063L61.9963 58.2181H73.2864L66.1143 62.3813Z" fill="#F57F26"/>
<path d="M76.5924 62.3813H66.1146L73.2866 58.2181H83.7645L76.5924 62.3813Z" fill="#F57F26"/>
<path d="M77.9154 55.5319H66.4955L70.118 53.4296H81.5359L77.9154 55.5319Z" fill="#F57F26"/>
<path d="M66.4955 55.5319L70.116 53.4296H70.118L66.4975 55.5319" fill="#FCD1A3"/>
<path d="M88.3933 55.5319H77.9154L81.5359 53.4296H92.0137L90.706 54.1887L88.3933 55.5319Z" fill="#F57F26"/>
</g>
<defs>
<clipPath id="clip0_29_4139">
<rect width="162" height="162" rx="8" fill="white"/>
</clipPath>
</defs>
</svg>
