<svg  viewBox="0 0 162 162" fill="none" xmlns="http://www.w3.org/2000/svg">
<g clip-path="url(#clip0_29_4413)">
<rect width="162" height="162" rx="8" fill="#FFCD54"/>
<path d="M161 81.1075C161 124.245 125.394 159.215 81.4728 159.215C37.5509 159.215 1.94543 124.245 1.94543 81.1075C1.94543 37.9698 37.5509 3.00008 81.4728 3.00008C125.394 3.00008 161 37.9698 161 81.1075Z" fill="#FFCD54"/>
<path d="M160.747 87.0571L115.422 42.5434L97.4206 54.8072L77.2584 97.7466L47.3138 126.417L80.6895 159.196L83 162H162V87.0571H160.747Z" fill="#F4BA41"/>
<path d="M116.577 124.444C116.577 126.251 115.089 127.712 113.249 127.712H49.6954C47.856 127.712 46.3688 126.251 46.3688 124.444V44.0729C46.3688 42.2682 47.856 40.8049 49.6954 40.8049H113.249C115.089 40.8049 116.577 42.2682 116.577 44.0729V124.444Z" fill="#26C8FF"/>
<path d="M112.226 123.172H50.7169V45.3444H112.226V123.172Z" fill="white"/>
<path d="M84.191 64.3574H79.5043V49.8644H84.191V64.3574Z" fill="#E21D4D"/>
<path d="M74.4358 59.4106V54.8072H89.1936V59.4106H74.4358Z" fill="#E21D4D"/>
<path d="M106.595 72.2761H57.1048V70.5781H106.595V72.2761Z" fill="#2F3241"/>
<path d="M106.595 78.8613H57.1048V77.1612H106.595V78.8613Z" fill="#2F3241"/>
<path d="M106.595 85.4359H57.1048V83.7379H106.595V85.4359Z" fill="#2F3241"/>
<path d="M106.595 92.0189H57.1048V90.3209H106.595V92.0189Z" fill="#2F3241"/>
<path d="M106.595 98.5957H57.1048V96.8977H106.595V98.5957Z" fill="#2F3241"/>
<path d="M106.595 105.179H57.1048V103.481H106.595V105.179Z" fill="#2F3241"/>
<path d="M106.595 111.757H57.1048V110.057H106.595V111.757Z" fill="#2F3241"/>
<path d="M94.1763 37.7713C94.1763 35.9644 92.6848 34.5032 90.8489 34.5032H72.1C70.2599 34.5032 68.7699 35.9644 68.7699 37.7713V42.5432H94.1763V37.7713Z" fill="#2F3241"/>
</g>
<defs>
<clipPath id="clip0_29_4413">
<rect width="162" height="162" rx="8" fill="white"/>
</clipPath>
</defs>
</svg>
