<svg  viewBox="0 0 162 162" fill="none" xmlns="http://www.w3.org/2000/svg">
<g clip-path="url(#clip0_29_4226)">
<rect width="162" height="162" rx="8" fill="#4A4949"/>
<path d="M81 162C125.735 162 162 125.735 162 81C162 36.2649 125.735 0 81 0C36.2649 0 0 36.2649 0 81C0 125.735 36.2649 162 81 162Z" fill="#4A4949"/>
<path d="M160.77 95.1241L117 51.3534C117 51.4926 70.1821 97.3636 70.1821 97.3636C70.1821 97.3636 45.5331 125.921 45.4543 126L81.4483 161.995H162V96L160.77 95.1241Z" fill="#292B2F"/>
<path d="M101.646 36.0001H45.4543V126H117V51.3534L101.646 36.0001Z" fill="white"/>
<path d="M117 51.3534L101.646 36.0001H83.1819V126H117V51.3534Z" fill="#E6F3FF"/>
<path d="M101.646 51.3541L117 51.3534L101.646 36.0001V51.3541Z" fill="#CFDBE6"/>
<path d="M82.9747 72.0002H54.0001V108H82.9747V72.0002Z" fill="#CFDBE6"/>
<path d="M95.7091 72.0001H86.0508V108H95.7091V72.0001Z" fill="#B8C9D9"/>
<path d="M107.998 72.0001H98.34V108H107.998V72.0001Z" fill="#B8C9D9"/>
<path d="M82.9747 64.6365H54.0001V70.091H82.9747V64.6365Z" fill="#FD8469"/>
<path d="M95.7091 64.6365H86.0508V70.091H95.7091V64.6365Z" fill="#FC6F58"/>
<path d="M107.998 64.6365H98.34V70.091H107.998V64.6365Z" fill="#FC6F58"/>
</g>
<defs>
<clipPath id="clip0_29_4226">
<rect width="162" height="162" rx="8" fill="white"/>
</clipPath>
</defs>
</svg>
