<svg  viewBox="0 0 162 162" fill="none" xmlns="http://www.w3.org/2000/svg">
<g clip-path="url(#clip0_29_4200)">
<rect width="162" height="162" rx="8" fill="#33681A"/>
<path d="M81 162C125.735 162 162 125.735 162 81C162 36.2649 125.735 0 81 0C36.2649 0 0 36.2649 0 81C0 125.735 36.2649 162 81 162Z" fill="#33681A"/>
<path d="M161.436 71.4353L117 26.9999C117 26.9999 77.5496 86.8383 77.5458 86.4545L45.0002 135L71.435 161.435H90.5679H161.436V90.5648V71.4353Z" fill="#284F16"/>
<path d="M117 26.9999H44.9999V135H117V26.9999Z" fill="#B97850"/>
<path d="M117 26.9999H81V135H117V26.9999Z" fill="#935635"/>
<path d="M112.636 31.0911H49.3635V130.909H112.636V31.0911Z" fill="white"/>
<path d="M112.637 31.0911H81V130.909H112.637V31.0911Z" fill="#E6F3FF"/>
<path d="M99 26.9999H63V35.9997H99V26.9999Z" fill="#734B46"/>
<path d="M99 26.9999H81V35.9997H99V26.9999Z" fill="#57442F"/>
<path d="M63 54.0001H54.0001V63H63V54.0001Z" fill="#33681A"/>
<path d="M63 72.0001H54.0001V81H63V72.0001Z" fill="#33681A"/>
<path d="M63 89.9999H54.0001V98.9997H63V89.9999Z" fill="#33681A"/>
<path d="M63 108H54.0001V117H63V108Z" fill="#33681A"/>
<path d="M108 61.3635H72.0001V63H108V61.3635Z" fill="#CFDBE6"/>
<path d="M108 79.3635H72.0001V81H108V79.3635Z" fill="#CFDBE6"/>
<path d="M108 97.3635H72.0001V99H108V97.3635Z" fill="#CFDBE6"/>
<path d="M108 115.364H72.0001V117H108V115.364Z" fill="#CFDBE6"/>
<path d="M108 57.5454H72.0001V59.1819H108V57.5454Z" fill="#CFDBE6"/>
<path d="M108 75.5454H72.0001V77.1819H108V75.5454Z" fill="#CFDBE6"/>
<path d="M108 93.5455H72.0001V95.182H108V93.5455Z" fill="#CFDBE6"/>
<path d="M108 111.546H72.0001V113.182H108V111.546Z" fill="#CFDBE6"/>
</g>
<defs>
<clipPath id="clip0_29_4200">
<rect width="162" height="162" rx="8" fill="white"/>
</clipPath>
</defs>
</svg>
