<svg  viewBox="0 0 162 167" fill="none" xmlns="http://www.w3.org/2000/svg">
<g clip-path="url(#clip0_29_4070)">
<rect width="162" height="166.884" rx="8" fill="#D6D7D8"/>
<path d="M162.653 80.9801C162.653 125.715 126.386 161.98 81.6533 161.98C36.918 161.98 0.653259 125.715 0.653259 80.9801C0.653259 36.2448 36.918 -0.0200348 81.6533 -0.0200348C126.386 -0.0200348 162.653 36.2448 162.653 80.9801Z" fill="#D6D7D8"/>
<path d="M74.5321 17.4011L71.0965 58.6964L58.9937 84.5969L24.1514 115.291L64.7032 160.17L71.0965 167H162.315V89.3046L114.5 41.5L95 36L77.2444 16.5715L74.5321 17.4011Z" fill="#B3B6BA"/>
<path d="M79.3678 35.3725C79.3678 35.3725 88.1833 41.1411 84.3555 63.8019C83.8943 66.5465 83.343 74.6385 87.3833 77.9457C87.3833 77.9457 73.85 77.9457 63.3024 77.9457L79.3678 35.3725Z" fill="#FF9D26"/>
<path d="M47.2369 35.3725C47.2369 35.3725 38.4214 41.1411 42.2454 63.8019C42.7067 66.5465 43.2598 74.6385 39.2195 77.9457C39.2195 77.9457 52.7529 77.9457 63.3024 77.9457L47.2369 35.3725Z" fill="#FF9D26"/>
<path d="M45.8474 82.767H80.832C91.8983 82.767 100.871 90.7787 100.871 101.843V116.121H63.3426H25.8106V101.843C25.8106 90.7787 34.7792 82.767 45.8474 82.767Z" fill="white"/>
<path d="M77.0692 82.7669L63.3426 107.456V82.7669H77.0692Z" fill="#26C8FF"/>
<path d="M49.6121 82.7669L63.3425 107.456V82.7669H49.6121Z" fill="#26C8FF"/>
<path d="M63.3024 68.2076V87.2435C57.1166 87.2435 53.5816 82.7725 53.5816 82.7725L54.7644 66.7837L63.3024 68.2076Z" fill="#FDCF9D"/>
<path d="M63.306 68.2076H63.3022V87.2435H63.306C69.4918 87.2435 73.0345 82.8606 73.0345 82.8606L71.846 66.7837L63.306 68.2076Z" fill="#FDDBAE"/>
<path d="M33.0931 98.8301C33.0931 98.6406 33.2692 98.4741 33.4797 98.4741H40.2435V99.5459H43.3441V98.4741H50.282C50.4906 98.4741 50.6571 98.6406 50.6571 98.8301V99.9517H33.0931V98.8301Z" fill="#2F3241"/>
<path d="M34.4214 103.701H41.254V102.563H34.4214V103.701ZM34.4214 105.623H41.254V104.515H34.4214V105.623ZM34.4214 107.778H41.254V106.674H34.4214V107.778ZM50.6571 99.9521V109.918C50.6571 110.115 50.4906 110.272 50.282 110.272H33.4797C33.2692 110.272 33.0931 110.115 33.0931 109.918V99.9521H50.6571Z" fill="#26C8FF"/>
<path d="M41.254 107.778H34.4213V106.674H41.254V107.778Z" fill="#2F3241"/>
<path d="M41.254 105.623H34.4213V104.515H41.254V105.623Z" fill="#2F3241"/>
<path d="M41.254 103.701H34.4213V102.562H41.254V103.701Z" fill="#2F3241"/>
<path d="M40.2529 98.664V94.5931H43.3669V99.5463H40.2529V98.664Z" fill="#2F3241"/>
<path d="M42.9861 106.176L44.1842 105.627L44.5976 105.453L45.0129 105.261V104.699C44.8904 104.63 44.8062 104.568 44.789 104.544C44.7622 104.505 44.7124 104.117 44.6588 103.747C44.5919 103.717 44.4981 103.619 44.4234 103.403C44.2971 102.98 44.3603 102.758 44.4674 102.718L44.4617 102.697C44.4502 100.819 45.8034 100.938 45.8034 100.938C45.8034 100.938 47.1565 100.819 47.1354 102.697L47.1335 102.71C47.2598 102.71 47.3575 102.932 47.2082 103.403C47.1354 103.619 47.0455 103.717 46.9823 103.747C46.9211 104.117 46.8694 104.505 46.8503 104.544C46.8369 104.568 46.7412 104.63 46.6206 104.699V105.261L47.0417 105.453L47.4551 105.627L48.6494 106.176C48.7374 106.262 48.8963 107.099 48.9958 107.815H46.4292H46.0541H45.8206H45.589L45.5756 107.809V107.815H45.2177H42.6396C42.743 107.099 42.8942 106.262 42.9861 106.176Z" fill="#2F3241"/>
<path d="M44.2666 55.1184C44.7929 58.7701 46.4121 61.5663 48.6667 61.5663C51.84 61.5663 51.3902 58.0332 51.3902 54.525C51.3902 49.9029 50.2266 49.122 47.2964 49.122C45.0437 49.122 43.7709 51.6427 44.2666 55.1184Z" fill="#FDDBAE"/>
<path d="M82.7669 55.1184C82.2387 58.7701 80.6214 61.5663 78.363 61.5663C75.1973 61.5663 75.6433 58.0332 75.6433 54.525C75.6433 49.9029 76.8031 49.122 79.7391 49.122C81.9879 49.122 83.2645 51.6427 82.7669 55.1184Z" fill="#FFE5BA"/>
<path d="M48.146 49.8857C48.146 49.8857 48.3987 64.8468 50.2647 67.9914C51.7576 70.5216 57.1414 73.8289 63.3425 73.8289V28.5532C63.3425 28.5532 45.5278 26.134 48.146 49.8857Z" fill="#FDDBAE"/>
<path d="M78.5391 49.8857C78.5391 49.8857 78.2807 64.8468 76.4262 67.9914C74.9256 70.5216 69.5456 73.8289 63.3426 73.8289V28.5532C63.3426 28.5532 81.1555 26.134 78.5391 49.8857Z" fill="#FFE5BA"/>
<path d="M51.4418 27.8469C51.2561 27.0086 51.1566 26.1436 51.1566 25.2536C51.1566 18.53 56.617 16.905 63.3425 16.8974L63.3234 26.5302V44.6817C61.5511 45.5602 59.731 46.3258 58.0505 46.9459C54.3069 48.3354 48.4829 49.1221 48.0656 49.1221C48.0656 49.1221 47.212 42.3678 47.212 37.4605C47.212 33.7284 48.3584 30.0556 51.4418 27.8469Z" fill="#FF9D26"/>
<path d="M67.9626 19.5175C64.2286 13.9212 75.5322 18.5223 75.5322 25.2536C75.5322 26.2641 75.3963 27.2479 75.159 28.1857C77.6547 29.9044 79.4691 32.7485 79.4691 37.4605C79.4691 42.3678 78.6155 49.1221 78.6155 49.1221C78.2844 49.1221 73.3905 43.6311 71.4287 39.1046C69.6029 41.1678 66.5387 43.1008 63.3233 44.6817V26.5302L63.3424 15.9385C63.3482 15.9385 69.8823 22.3941 67.9626 19.5175Z" fill="#FF9D26"/>
<path d="M37.8893 21.5864C37.8893 21.5864 45.3517 13.2532 63.3195 13.2532C81.2912 13.2532 88.7613 21.5864 88.7613 21.5864L81.8329 38.1361C74.9638 35.648 63.3789 35.4891 63.3195 35.4853C63.2679 35.4891 51.6829 35.648 44.8138 38.1361L37.8893 21.5864Z" fill="white"/>
<path d="M61.4018 29.8297H65.1971V17.8677H61.4018V29.8297Z" fill="#E63E22"/>
<path d="M69.5227 25.7475V21.9502H57.5721V25.7475H69.5227Z" fill="#E63E22"/>
<path d="M120.306 95.1218H82.155C70.0866 95.1218 60.3067 103.861 60.3067 115.927V131.494H101.231H142.155V115.927C142.155 103.861 132.375 95.1218 120.306 95.1218Z" fill="#26C8FF"/>
<path d="M86.2595 95.1219L101.231 122.049V95.1219H86.2595Z" fill="#FDDBAE"/>
<path d="M116.202 95.1219L101.231 122.049V95.1219H116.202Z" fill="#FDCF9D"/>
<path d="M101.227 76.3716V100.926C109.206 100.926 113.766 95.1545 113.766 95.1545L112.243 74.5327L101.227 76.3716Z" fill="#FDCF9D"/>
<path d="M101.225 76.3716H101.227V100.926H101.225C93.2496 100.926 88.6802 95.2712 88.6802 95.2712L90.211 74.5327L101.225 76.3716Z" fill="#FDDBAE"/>
<path d="M117.163 63.4326C117.163 63.4326 116.893 79.1194 114.945 82.4164C113.376 85.0685 107.731 88.5358 101.227 88.5358V41.0695C101.227 41.0695 119.905 38.5323 117.163 63.4326Z" fill="#FDDBAE"/>
<path d="M121.407 67.7131C120.854 71.542 119.158 74.4753 116.795 74.4753C113.468 74.4753 113.942 70.7689 113.942 67.0912C113.942 62.2443 115.163 61.4272 118.23 61.4272C120.601 61.4272 121.933 64.0736 121.407 67.7131Z" fill="#FDDBAE"/>
<path d="M85.2951 63.4326C85.2951 63.4326 85.5573 79.1194 87.5167 82.4164C89.082 85.0685 94.7268 88.5358 101.227 88.5358V41.0695C101.227 41.0695 82.5569 38.5323 85.2951 63.4326Z" fill="#FFE5BA"/>
<path d="M81.0549 67.7131C81.6003 71.542 83.2975 74.4753 85.6607 74.4753C88.9902 74.4753 88.5156 70.7689 88.5156 67.0912C88.5156 62.2443 87.2967 61.4272 84.2294 61.4272C81.8585 61.4272 80.523 64.0736 81.0549 67.7131Z" fill="#FFE5BA"/>
<path d="M119.338 53.7117C119.338 62.3033 116.472 66.7714 116.472 66.7714C116.472 66.7714 115.259 60.3114 114.843 58.1473C114.124 54.437 112.53 46.3831 113.659 43.0728L119.338 49.4217C119.338 49.4217 119.338 50.9774 119.338 53.7117Z" fill="#2F3241"/>
<path d="M83.1194 53.7117C83.1194 62.3033 85.9877 66.7714 85.9877 66.7714C85.9877 66.7714 87.199 60.3114 87.6181 58.1473C88.3318 54.437 89.9238 46.3831 88.7967 43.0728L83.1194 49.504C83.1194 49.504 83.1194 50.9774 83.1194 53.7117Z" fill="#2F3241"/>
<path d="M119.338 49.504C119.338 42.1389 113.368 36.1631 105.999 36.1631H100.169L101.024 54.4427C104.631 55.0589 109.533 55.4894 115.082 55.4894C119.489 55.4894 119.292 50.4109 119.292 50.4109C119.309 50.1086 119.338 49.8121 119.338 49.504Z" fill="#2F3241"/>
<path d="M96.4603 36.163C89.0914 36.163 83.1194 42.1389 83.1194 49.5039C83.1194 49.812 88.3146 49.6494 88.3318 49.9575C88.3318 49.9575 91.688 52.8354 101.024 54.4427V36.163H96.4603Z" fill="#2F3241"/>
<path d="M134.212 112.64C134.212 112.433 134.019 112.253 133.791 112.253H126.418V113.42H123.033V112.253H115.473C115.241 112.253 115.064 112.433 115.064 112.64V113.864H134.212V112.64Z" fill="#2F3241"/>
<path d="M132.767 117.952H125.312V116.706H132.767V117.952ZM132.767 120.047H125.312V118.836H132.767V120.047ZM132.767 122.397H125.312V121.191H132.767V122.397ZM115.064 113.865V124.729C115.064 124.946 115.241 125.12 115.473 125.12H133.791C134.019 125.12 134.212 124.946 134.212 124.729V113.865H115.064Z" fill="white"/>
<path d="M125.312 122.397H132.767V121.191H125.312V122.397Z" fill="#2F3241"/>
<path d="M125.312 120.047H132.767V118.836H125.312V120.047Z" fill="#2F3241"/>
<path d="M125.312 117.952H132.767V116.706H125.312V117.952Z" fill="#2F3241"/>
<path d="M126.403 112.46V108.021H123.01V113.421H126.403V112.46Z" fill="#2F3241"/>
<path d="M123.427 120.654L122.119 120.051L121.671 119.86L121.215 119.649V119.041C121.346 118.962 121.443 118.893 121.457 118.87C121.489 118.828 121.545 118.407 121.604 118C121.675 117.965 121.772 117.866 121.853 117.628C121.996 117.169 121.929 116.919 121.811 116.875L121.818 116.857C121.832 114.806 120.358 114.934 120.358 114.934C120.358 114.934 118.883 114.806 118.896 116.857L118.904 116.869C118.762 116.869 118.663 117.112 118.82 117.628C118.896 117.866 119 117.965 119.07 118C119.132 118.407 119.191 118.828 119.214 118.87C119.225 118.893 119.327 118.962 119.463 119.041V119.649L119 119.86L118.554 120.051L117.247 120.654C117.153 120.747 116.981 121.658 116.868 122.437H119.677H120.081H120.335H120.586L120.601 122.431V122.437H120.993H123.806C123.692 121.658 123.525 120.747 123.427 120.654Z" fill="#2F3241"/>
</g>
<defs>
<clipPath id="clip0_29_4070">
<rect width="162" height="166.884" rx="8" fill="white"/>
</clipPath>
</defs>
</svg>
